<!-- <svg fill="none" height="48" viewBox="0 0 40 48" width="40" xmlns="http://www.w3.org/2000/svg"><g fill="#d4a574"><path d="m9.72461 41.7983h18.49589c1.2717 0 2.4469-.6785 3.0827-1.7798l4.1102-7.1191h-20.5481z" opacity=".7"/><path d="m25.1445 15.1015h-20.55661l4.11021-7.11909c.63585-1.10133 1.811-1.77977 3.0827-1.77977h18.4959z" opacity=".4"/><path d="m39.5272 25.7801c.6358-1.1014.6358-2.4582 0-3.5596l-4.1102-7.1191-5.1378 8.8989h-20.55068l5.13718 8.8989h20.5481l.0016-.0027.0016.0027z" opacity=".4"/><path d="m14.8634 32.8992-5.13775-8.8988-5.13776 8.8988 5.13776 8.8989z"/><path d="m25.1445 15.1014h-20.55593l-4.108166 7.1192c-.635516 1.1013-.635318 2.458.000521 3.5591l4.111125 7.1195 5.13775-8.8989h20.55l.0013-.0021z" opacity=".7"/><path d="m35.4181 15.1015-5.1378-8.89886-5.1377 8.89886 5.1377 8.8989z"/></g></svg> -->

<svg fill="none" height="48" viewBox="0 0 44 48" width="44" xmlns="http://www.w3.org/2000/svg"><path d="m36.3068 11.4224c-.4322-.4323-.8644-.8645-1.2967-1.2967-1.2966-1.38311-2.6797-2.76621-4.4086-3.63065-1.9882-1.03733-4.1493-.778-6.3104-.778-3.2849 0-11.4971 0-16.33798 0l3.28488 4.40865h19.6228c1.8153 0 3.3713.3458 4.8409 1.2967.2593.0864.5186.0864.6051 0z" fill="#d4a574"/><path d="m39.9368 18.511c-.4322-.4322-.8645-.8645-1.2967-1.2967-1.2967-1.3831-2.6797-2.7662-4.4086-3.6306-1.9882-1.0374-4.1494-.778-6.3105-.778-2.8526 0-9.6817 0-14.5226 0l3.2849 4.4086h17.8939c1.8154 0 3.3714.3458 4.8409 1.2967.1729.0864.3458.0864.5187 0z" fill="#d4a574"/><path d="m44 25.4263c-.4322-.4323-.8645-.8645-1.2967-1.2967-1.2966-1.3831-2.6797-2.7662-4.4086-3.6307-1.9882-1.0373-4.1493-.7779-6.3104-.7779-2.6798 0-8.558 0-13.3124 0l3.2848 4.4086h16.5973c1.8153 0 3.3713.3458 4.8409 1.2967.2593.0864.4322.1729.6051 0z" fill="#d4a574"/><path d="m7.60742 37.0961c.43222.4322.86444.8644 1.29666 1.2966 1.29662 1.3831 2.67972 2.7662 4.40862 3.6307 1.9882 1.0373 4.1493.778 6.3104.778h16.338l-3.2849-4.4087c-5.9646 0-15.3006 0-19.6228 0-1.8153 0-3.37132-.3457-4.84087-1.2966-.25933-.0865-.43222-.0865-.60511 0z" fill="#d4a574"/><path d="m3.97656 30.0079c.43222.4323.86444.8645 1.29666 1.2967 1.29667 1.3831 2.67976 2.7662 4.40864 3.6307 1.98824 1.0373 4.14934.778 6.31044.778h14.5226l-3.2849-4.4087c-5.8782 0-13.9175 0-17.89391 0-1.81532 0-3.37132-.3458-4.84087-1.2967-.17289-.0864-.34577-.0864-.51866 0z" fill="#d4a574"/><path d="m0 23.0058c.43222.4322.864441.8644 1.29666 1.2966 1.29666 1.3831 2.67977 2.7662 4.40866 3.6307 1.98821 1.0373 4.1493.778 6.31038.778h13.3124l-3.2849-4.4087c-5.7053 0-12.96657 0-16.59722 0-1.81533 0-3.37132-.3458-4.840874-1.2966-.259332-.0865-.432218-.0865-.605106 0z" fill="#d4a574"/></svg>